<svg xmlns="http://www.w3.org/2000/svg" xmlns:xlink="http://www.w3.org/1999/xlink" width="1600" zoomAndPan="magnify" viewBox="0 0 1200 374.999991" height="500" preserveAspectRatio="xMidYMid meet" version="1.0"><defs><g/><clipPath id="7ef5fade96"><path d="M 0.558594 0.839844 L 807.679688 0.839844 L 807.679688 366 L 0.558594 366 Z M 0.558594 0.839844 " clip-rule="nonzero"/></clipPath><clipPath id="86c0e4e212"><rect x="0" width="808" y="0" height="366"/></clipPath><clipPath id="6ec6c3510e"><path d="M 304.195312 47.175781 L 386.652344 47.175781 L 386.652344 129.3125 L 304.195312 129.3125 Z M 304.195312 47.175781 " clip-rule="nonzero"/></clipPath><clipPath id="1c18ad5d20"><path d="M 345.421875 47.175781 L 348.933594 74.203125 L 364.664062 51.910156 L 355.347656 77.5625 L 379.625 65.042969 L 359.472656 83.367188 L 386.652344 83.671875 L 360.234375 90.542969 L 384.207031 103.371094 L 357.792969 97.261719 L 372.90625 119.859375 L 352.445312 101.996094 L 355.347656 129.023438 L 345.421875 103.675781 L 335.496094 129.023438 L 338.398438 101.996094 L 317.9375 119.859375 L 333.054688 97.261719 L 306.636719 103.371094 L 330.609375 90.542969 L 304.195312 83.671875 L 331.375 83.367188 L 311.21875 65.042969 L 335.496094 77.5625 L 326.183594 51.910156 L 341.910156 74.203125 Z M 345.421875 47.175781 " clip-rule="nonzero"/></clipPath><clipPath id="9c9d573bc3"><path d="M 0.195312 0.175781 L 82.652344 0.175781 L 82.652344 82.238281 L 0.195312 82.238281 Z M 0.195312 0.175781 " clip-rule="nonzero"/></clipPath><clipPath id="232fe4711a"><path d="M 41.421875 0.175781 L 44.933594 27.203125 L 60.664062 4.910156 L 51.347656 30.5625 L 75.625 18.042969 L 55.472656 36.367188 L 82.652344 36.671875 L 56.234375 43.542969 L 80.207031 56.371094 L 53.792969 50.261719 L 68.90625 72.859375 L 48.445312 54.996094 L 51.347656 82.023438 L 41.421875 56.675781 L 31.496094 82.023438 L 34.398438 54.996094 L 13.9375 72.859375 L 29.054688 50.261719 L 2.636719 56.371094 L 26.609375 43.542969 L 0.195312 36.671875 L 27.375 36.367188 L 7.21875 18.042969 L 31.496094 30.5625 L 22.183594 4.910156 L 37.910156 27.203125 Z M 41.421875 0.175781 " clip-rule="nonzero"/></clipPath><clipPath id="9c3fc9b0c7"><rect x="0" width="83" y="0" height="83"/></clipPath><clipPath id="105ce50d35"><rect x="0" width="808" y="0" height="366"/></clipPath></defs><g transform="matrix(1, 0, 0, 1, 190, 9)"><g clip-path="url(#105ce50d35)"><g clip-path="url(#7ef5fade96)"><g><g clip-path="url(#86c0e4e212)"><g fill="#c1ff72" fill-opacity="1"><g transform="translate(0.753498, 309.204496)"><g><path d="M 14.765625 0 L 14.765625 -4.921875 C 20.578125 -6.691406 24.554688 -10.476562 26.703125 -16.28125 C 28.847656 -22.09375 29.921875 -32.695312 29.921875 -48.09375 L 29.921875 -181.421875 L 7.953125 -181.421875 L 9.84375 -186.71875 L 29.921875 -186.71875 C 30.679688 -200.863281 34.28125 -214.4375 40.71875 -227.4375 C 47.15625 -240.4375 55.675781 -252.050781 66.28125 -262.28125 C 76.882812 -272.507812 89.066406 -280.585938 102.828125 -286.515625 C 116.585938 -292.453125 131.171875 -295.421875 146.578125 -295.421875 C 163.742188 -295.421875 172.328125 -292.140625 172.328125 -285.578125 C 172.328125 -283.304688 171.316406 -280.460938 169.296875 -277.046875 C 167.273438 -273.640625 164.429688 -270.546875 160.765625 -267.765625 C 157.109375 -264.992188 152.628906 -263.609375 147.328125 -263.609375 C 138.742188 -263.609375 130.160156 -264.804688 121.578125 -267.203125 C 112.992188 -269.609375 103.273438 -272.703125 92.421875 -276.484375 C 88.117188 -274.210938 83.378906 -270.867188 78.203125 -266.453125 C 73.035156 -262.035156 68.617188 -255.40625 64.953125 -246.5625 C 61.296875 -237.726562 59.46875 -225.359375 59.46875 -209.453125 L 59.46875 -186.71875 L 109.078125 -186.71875 L 106.8125 -181.421875 L 59.46875 -181.421875 L 59.46875 -48.09375 C 59.46875 -32.695312 60.539062 -22.09375 62.6875 -16.28125 C 64.832031 -10.476562 68.804688 -6.691406 74.609375 -4.921875 L 74.609375 0 Z M 14.765625 0 "/></g></g></g><g fill="#c1ff72" fill-opacity="1"><g transform="translate(92.029845, 309.204496)"><g><path d="M 42.421875 2.65625 C 37.117188 2.65625 32.507812 0.632812 28.59375 -3.40625 C 24.675781 -7.445312 22.71875 -12.242188 22.71875 -17.796875 C 22.71875 -23.359375 24.675781 -28.09375 28.59375 -32 C 32.507812 -35.914062 37.117188 -37.875 42.421875 -37.875 C 47.722656 -37.875 52.265625 -35.914062 56.046875 -32 C 59.835938 -28.09375 61.734375 -23.359375 61.734375 -17.796875 C 61.734375 -12.242188 59.835938 -7.445312 56.046875 -3.40625 C 52.265625 0.632812 47.722656 2.65625 42.421875 2.65625 Z M 42.421875 2.65625 "/></g></g></g><g fill="#c1ff72" fill-opacity="1"><g transform="translate(152.628497, 309.204496)"><g><path d="M 162.109375 3.03125 C 150.492188 3.03125 141.71875 -0.816406 135.78125 -8.515625 C 129.84375 -16.222656 126.875 -26.640625 126.875 -39.765625 C 126.875 -45.828125 127.632812 -52.394531 129.15625 -59.46875 C 117.03125 -37.75 103.960938 -21.960938 89.953125 -12.109375 C 75.941406 -2.265625 63.253906 2.78125 51.890625 3.03125 C 41.035156 3.03125 32.132812 -0.503906 25.1875 -7.578125 C 18.238281 -14.648438 14.765625 -24.75 14.765625 -37.875 C 14.765625 -48.988281 17.351562 -60.351562 22.53125 -71.96875 C 27.707031 -83.582031 34.585938 -95.003906 43.171875 -106.234375 C 51.765625 -117.472656 61.234375 -128.140625 71.578125 -138.234375 C 81.929688 -148.335938 92.285156 -157.429688 102.640625 -165.515625 C 99.609375 -165.765625 95.25 -165.953125 89.5625 -166.078125 C 83.882812 -166.203125 78.015625 -166.390625 71.953125 -166.640625 C 65.898438 -166.898438 60.726562 -166.90625 56.4375 -166.65625 C 47.851562 -166.394531 41.160156 -164.625 36.359375 -161.34375 C 31.554688 -158.0625 26.632812 -153.644531 21.59375 -148.09375 L 18.5625 -150.359375 C 29.414062 -165.253906 40.144531 -177.25 50.75 -186.34375 C 53.53125 -188.363281 56.625 -189.816406 60.03125 -190.703125 C 63.4375 -191.585938 66.910156 -192.03125 70.453125 -192.03125 C 76.253906 -192.03125 84.898438 -191.585938 96.390625 -190.703125 C 107.878906 -189.816406 119.304688 -189.375 130.671875 -189.375 L 131.421875 -185.96875 C 113.742188 -172.332031 98.46875 -157.242188 85.59375 -140.703125 C 72.71875 -124.160156 62.804688 -107.554688 55.859375 -90.890625 C 48.921875 -74.234375 45.453125 -59.085938 45.453125 -45.453125 C 45.453125 -36.109375 47.660156 -28.40625 52.078125 -22.34375 C 56.492188 -16.28125 63.25 -13.25 72.34375 -13.25 C 82.4375 -13 93.164062 -19.125 104.53125 -31.625 C 115.894531 -44.125 126.628906 -61.609375 136.734375 -84.078125 C 140.515625 -94.429688 145.054688 -104.46875 150.359375 -114.1875 C 155.660156 -123.914062 160.960938 -132.3125 166.265625 -139.375 C 167.785156 -141.394531 170.628906 -143.539062 174.796875 -145.8125 C 178.960938 -148.09375 183.316406 -150.113281 187.859375 -151.875 C 192.398438 -153.644531 196.125 -154.78125 199.03125 -155.28125 C 201.9375 -155.789062 202.757812 -155.160156 201.5 -153.390625 C 185.59375 -132.179688 174.289062 -111.851562 167.59375 -92.40625 C 160.90625 -72.96875 157.6875 -57.566406 157.9375 -46.203125 C 157.9375 -37.117188 159.894531 -29.421875 163.8125 -23.109375 C 167.726562 -16.796875 174.351562 -13.507812 183.6875 -13.25 C 190.257812 -13.25 197.015625 -15.835938 203.953125 -21.015625 C 210.898438 -26.191406 217.90625 -33.132812 224.96875 -41.84375 C 232.039062 -50.5625 238.796875 -60.347656 245.234375 -71.203125 C 251.679688 -82.054688 257.425781 -93.164062 262.46875 -104.53125 C 260.707031 -120.695312 259.445312 -134.269531 258.6875 -145.25 C 257.925781 -156.226562 258.050781 -164.75 259.0625 -170.8125 C 259.820312 -177.375 263.101562 -182.613281 268.90625 -186.53125 C 274.71875 -190.445312 280.523438 -192.40625 286.328125 -192.40625 C 291.628906 -192.40625 294.28125 -189.878906 294.28125 -184.828125 C 294.28125 -179.773438 292.953125 -172.640625 290.296875 -163.421875 C 287.648438 -154.210938 284.429688 -144.617188 280.640625 -134.640625 C 276.859375 -124.671875 273.203125 -115.769531 269.671875 -107.9375 C 263.359375 -94.050781 256.285156 -80.539062 248.453125 -67.40625 C 240.628906 -54.28125 232.109375 -42.414062 222.890625 -31.8125 C 213.671875 -21.207031 203.945312 -12.75 193.71875 -6.4375 C 183.5 -0.125 172.960938 3.03125 162.109375 3.03125 Z M 162.109375 3.03125 "/></g></g></g><g fill="#c1ff72" fill-opacity="1"><g transform="translate(413.968344, 309.204496)"><g><path d="M 103.40625 3.78125 C 93.050781 3.78125 82.570312 1.886719 71.96875 -1.890625 C 61.363281 -5.679688 51.640625 -11.425781 42.796875 -19.125 C 33.960938 -26.820312 26.894531 -36.476562 21.59375 -48.09375 C 16.289062 -59.71875 13.640625 -73.351562 13.640625 -89 C 13.640625 -109.707031 18.242188 -127.757812 27.453125 -143.15625 C 36.671875 -158.5625 48.851562 -170.554688 64 -179.140625 C 79.15625 -187.734375 95.570312 -192.03125 113.25 -192.03125 C 129.15625 -192.03125 142.722656 -188.9375 153.953125 -182.75 C 165.191406 -176.5625 173.90625 -168.414062 180.09375 -158.3125 C 186.28125 -148.21875 189.5 -137.109375 189.75 -124.984375 L 41.65625 -124.984375 C 40.90625 -119.429688 40.53125 -113.625 40.53125 -107.5625 C 40.53125 -90.394531 43.875 -75.179688 50.5625 -61.921875 C 57.25 -48.671875 66.71875 -38.382812 78.96875 -31.0625 C 91.21875 -23.738281 105.546875 -20.078125 121.953125 -20.078125 C 136.597656 -20.078125 149.347656 -23.101562 160.203125 -29.15625 C 171.066406 -35.21875 180.789062 -43.175781 189.375 -53.03125 L 192.78125 -49.609375 C 186.46875 -40.773438 178.890625 -32.253906 170.046875 -24.046875 C 161.210938 -15.835938 151.300781 -9.144531 140.3125 -3.96875 C 129.332031 1.195312 117.03125 3.78125 103.40625 3.78125 Z M 42.796875 -129.90625 L 159.453125 -129.90625 C 158.191406 -138.488281 155.097656 -147.007812 150.171875 -155.46875 C 145.242188 -163.9375 138.675781 -171.007812 130.46875 -176.6875 C 122.269531 -182.363281 112.363281 -185.203125 100.75 -185.203125 C 84.582031 -185.460938 71.640625 -180.285156 61.921875 -169.671875 C 52.203125 -159.066406 45.828125 -145.8125 42.796875 -129.90625 Z M 42.796875 -129.90625 "/></g></g></g><g fill="#c1ff72" fill-opacity="1"><g transform="translate(593.491524, 309.204496)"><g><path d="M 110.96875 3.40625 C 96.832031 3.40625 83.640625 0.566406 71.390625 -5.109375 C 59.148438 -10.796875 49.617188 -17.300781 42.796875 -24.625 L 30.296875 0 L 26.515625 0 L 26.515625 -248.84375 C 26.515625 -257.675781 25.945312 -264.300781 24.8125 -268.71875 C 23.675781 -273.132812 22.035156 -276.351562 19.890625 -278.375 C 17.742188 -280.394531 14.898438 -282.164062 11.359375 -283.6875 L 11.359375 -287.84375 L 52.640625 -306.03125 L 56.0625 -303.375 L 56.0625 -166.265625 C 66.15625 -173.085938 77.195312 -179.085938 89.1875 -184.265625 C 101.1875 -189.441406 113.75 -192.03125 126.875 -192.03125 C 143.039062 -192.03125 157.304688 -188.050781 169.671875 -180.09375 C 182.046875 -172.144531 191.769531 -161.222656 198.84375 -147.328125 C 205.914062 -133.441406 209.453125 -117.535156 209.453125 -99.609375 C 209.453125 -82.191406 205.660156 -65.65625 198.078125 -50 C 190.503906 -34.34375 179.394531 -21.585938 164.75 -11.734375 C 150.101562 -1.890625 132.175781 3.15625 110.96875 3.40625 Z M 56.0625 -64.015625 C 56.0625 -54.921875 59.21875 -45.765625 65.53125 -36.546875 C 71.84375 -27.328125 80.109375 -19.625 90.328125 -13.4375 C 100.554688 -7.257812 111.476562 -4.171875 123.09375 -4.171875 C 142.789062 -4.171875 157.4375 -10.921875 167.03125 -24.421875 C 176.625 -37.929688 181.421875 -55.671875 181.421875 -77.640625 C 181.421875 -88.242188 180.15625 -99.414062 177.625 -111.15625 C 175.101562 -122.90625 171 -133.953125 165.3125 -144.296875 C 159.632812 -154.648438 152.1875 -163.109375 142.96875 -169.671875 C 133.757812 -176.242188 122.460938 -179.53125 109.078125 -179.53125 C 99.234375 -179.53125 89.890625 -177.695312 81.046875 -174.03125 C 72.210938 -170.375 63.882812 -165.894531 56.0625 -160.59375 Z M 56.0625 -64.015625 "/></g></g></g></g></g></g><g clip-path="url(#6ec6c3510e)"><g clip-path="url(#1c18ad5d20)"><g transform="matrix(1, 0, 0, 1, 304, 47)"><g clip-path="url(#9c3fc9b0c7)"><g clip-path="url(#9c9d573bc3)"><g clip-path="url(#232fe4711a)"><path fill="#efefef" d="M 0.195312 0.175781 L 82.652344 0.175781 L 82.652344 82.632812 L 0.195312 82.632812 Z M 0.195312 0.175781 " fill-opacity="1" fill-rule="nonzero"/></g></g></g></g></g></g></g></g></svg>